# xmcd CD database file
#
# Track frame offsets:
#	150
#	32462
#	49298
#	88033
#	112352
#	150443
#	179551
#	207905
#	230455
#	259758
#
# Disc length: 3646 seconds
#
# Revision: 0
# Processed by: cddbd v1.4PL0 Copyright (c) Steve Scherf et al.
# Submitted via: NeoAudio 9.9.9
#
DISCID=860e3c0a
DTITLE=daniel schläppi - voices
DYEAR=2002
DGENRE=Jazz
TTITLE0=at first sight
TTITLE1=feel free i
TTITLE2=call me bop
TTITLE3=play of colours
TTITLE4=voices
TTITLE5=far out blues
TTITLE6=to the point
TTITLE7=graupenschauer
TTITLE8=trial and error
TTITLE9=feel i free II
EXTD=YEAR: 2002
EXTT0=
EXTT1=
EXTT2=
EXTT3=
EXTT4=
EXTT5=
EXTT6=
EXTT7=
EXTT8=
EXTT9=
PLAYORDER=
